%TF.GenerationSoftware,KiCad,Pcbnew,10.0.4*%
%TF.CreationDate,2026-07-14T11:37:03+09:00*%
%TF.ProjectId,N12_Mixed_100x100_Panel,4e31325f-4d69-4786-9564-5f3130307831,rev?*%
%TF.SameCoordinates,Original*%
%TF.FileFunction,Soldermask,Bot*%
%TF.FilePolarity,Negative*%
%FSLAX46Y46*%
G04 Gerber Fmt 4.6, Leading zero omitted, Abs format (unit mm)*
G04 Created by KiCad (PCBNEW 10.0.4) date 2026-07-14 11:37:03*
%MOMM*%
%LPD*%
G01*
G04 APERTURE LIST*
G04 Aperture macros list*
%AMRoundRect*
0 Rectangle with rounded corners*
0 $1 Rounding radius*
0 $2 $3 $4 $5 $6 $7 $8 $9 X,Y pos of 4 corners*
0 Add a 4 corners polygon primitive as box body*
4,1,4,$2,$3,$4,$5,$6,$7,$8,$9,$2,$3,0*
0 Add four circle primitives for the rounded corners*
1,1,$1+$1,$2,$3*
1,1,$1+$1,$4,$5*
1,1,$1+$1,$6,$7*
1,1,$1+$1,$8,$9*
0 Add four rect primitives between the rounded corners*
20,1,$1+$1,$2,$3,$4,$5,0*
20,1,$1+$1,$4,$5,$6,$7,0*
20,1,$1+$1,$6,$7,$8,$9,0*
20,1,$1+$1,$8,$9,$2,$3,0*%
%AMFreePoly0*
4,1,23,0.550000,-0.750000,0.000000,-0.750000,0.000000,-0.745722,-0.065263,-0.745722,-0.191342,-0.711940,-0.304381,-0.646677,-0.396677,-0.554381,-0.461940,-0.441342,-0.495722,-0.315263,-0.495722,-0.250000,-0.500000,-0.250000,-0.500000,0.250000,-0.495722,0.250000,-0.495722,0.315263,-0.461940,0.441342,-0.396677,0.554381,-0.304381,0.646677,-0.191342,0.711940,-0.065263,0.745722,0.000000,0.745722,
0.000000,0.750000,0.550000,0.750000,0.550000,-0.750000,0.550000,-0.750000,$1*%
%AMFreePoly1*
4,1,23,0.000000,0.745722,0.065263,0.745722,0.191342,0.711940,0.304381,0.646677,0.396677,0.554381,0.461940,0.441342,0.495722,0.315263,0.495722,0.250000,0.500000,0.250000,0.500000,-0.250000,0.495722,-0.250000,0.495722,-0.315263,0.461940,-0.441342,0.396677,-0.554381,0.304381,-0.646677,0.191342,-0.711940,0.065263,-0.745722,0.000000,-0.745722,0.000000,-0.750000,-0.550000,-0.750000,
-0.550000,0.750000,0.000000,0.750000,0.000000,0.745722,0.000000,0.745722,$1*%
G04 Aperture macros list end*
%ADD10R,1.500000X1.500000*%
%ADD11C,1.500000*%
%ADD12C,3.200000*%
%ADD13R,3.000000X3.000000*%
%ADD14C,3.000000*%
%ADD15C,1.700000*%
%ADD16C,4.000000*%
%ADD17C,2.200000*%
%ADD18C,0.900000*%
%ADD19R,1.700000X1.700000*%
%ADD20O,1.700000X1.700000*%
%ADD21C,1.200000*%
%ADD22R,1.100000X1.100000*%
%ADD23C,1.100000*%
%ADD24C,2.460000*%
%ADD25C,1.524000*%
%ADD26C,2.250000*%
%ADD27RoundRect,0.200000X-0.275000X0.200000X-0.275000X-0.200000X0.275000X-0.200000X0.275000X0.200000X0*%
%ADD28RoundRect,0.250000X-0.450000X0.262500X-0.450000X-0.262500X0.450000X-0.262500X0.450000X0.262500X0*%
%ADD29FreePoly0,270.000000*%
%ADD30R,1.500000X1.000000*%
%ADD31FreePoly1,270.000000*%
%ADD32O,2.750000X1.800000*%
%ADD33RoundRect,0.225000X-0.225000X-0.250000X0.225000X-0.250000X0.225000X0.250000X-0.225000X0.250000X0*%
%ADD34RoundRect,0.225000X-0.250000X0.225000X-0.250000X-0.225000X0.250000X-0.225000X0.250000X0.225000X0*%
%ADD35R,0.500000X0.800000*%
%ADD36C,1.600000*%
%ADD37RoundRect,0.225000X0.225000X0.250000X-0.225000X0.250000X-0.225000X-0.250000X0.225000X-0.250000X0*%
%ADD38RoundRect,0.250000X0.475000X-0.250000X0.475000X0.250000X-0.475000X0.250000X-0.475000X-0.250000X0*%
%ADD39RoundRect,0.250000X0.450000X-0.262500X0.450000X0.262500X-0.450000X0.262500X-0.450000X-0.262500X0*%
%ADD40RoundRect,0.250000X0.325000X0.650000X-0.325000X0.650000X-0.325000X-0.650000X0.325000X-0.650000X0*%
G04 APERTURE END LIST*
D10*
%TO.C,J1*%
X55150000Y-87150000D03*
D11*
X53350000Y-87150000D03*
X50350000Y-87150000D03*
X50350000Y-94150000D03*
X50350000Y-101150000D03*
X58150000Y-101150000D03*
X58150000Y-94150000D03*
X58150000Y-87150000D03*
%TD*%
D12*
%TO.C,H2*%
X39150000Y-94650000D03*
%TD*%
%TO.C,H2*%
X82150000Y-94650000D03*
%TD*%
%TO.C,H1*%
X8150000Y-78650000D03*
%TD*%
D13*
%TO.C,J2*%
X33650000Y-87150000D03*
D14*
X38650000Y-87150000D03*
%TD*%
D15*
%TO.C,SW4*%
X41300000Y-68465000D03*
D16*
X41300000Y-63385000D03*
D15*
X41300000Y-58305000D03*
D17*
X36220000Y-60845000D03*
X38760000Y-67195000D03*
%TD*%
D10*
%TO.C,SW2*%
X93985000Y-57500000D03*
D11*
X93985000Y-54960000D03*
X96525000Y-57500000D03*
X96525000Y-54960000D03*
%TD*%
D18*
%TO.C,SW1*%
X67035000Y-23875000D03*
X67035000Y-22175000D03*
%TD*%
D15*
%TO.C,SW6*%
X41300000Y-28465000D03*
D16*
X41300000Y-23385000D03*
D15*
X41300000Y-18305000D03*
D17*
X36220000Y-20845000D03*
X38760000Y-27195000D03*
%TD*%
D12*
%TO.C,H1*%
X51150000Y-78650000D03*
%TD*%
D19*
%TO.C,J2*%
X70775000Y-9845000D03*
D20*
X70775000Y-7305000D03*
X73315000Y-9845000D03*
X73315000Y-7305000D03*
X75855000Y-9845000D03*
X75855000Y-7305000D03*
X78395000Y-9845000D03*
X78395000Y-7305000D03*
X80935000Y-9845000D03*
X80935000Y-7305000D03*
X83475000Y-9845000D03*
X83475000Y-7305000D03*
X86015000Y-9845000D03*
X86015000Y-7305000D03*
X88555000Y-9845000D03*
X88555000Y-7305000D03*
X91095000Y-9845000D03*
X91095000Y-7305000D03*
X93635000Y-9845000D03*
X93635000Y-7305000D03*
X96175000Y-9845000D03*
X96175000Y-7305000D03*
%TD*%
D21*
%TO.C,D3*%
X66455000Y-55025000D03*
X68995000Y-55025000D03*
X66455000Y-57565000D03*
X68995000Y-57565000D03*
%TD*%
D15*
%TO.C,SW5*%
X41300000Y-48465000D03*
D16*
X41300000Y-43385000D03*
D15*
X41300000Y-38305000D03*
D17*
X36220000Y-40845000D03*
X38760000Y-47195000D03*
%TD*%
D10*
%TO.C,J1*%
X12150000Y-87150000D03*
D11*
X10350000Y-87150000D03*
X7350000Y-87150000D03*
X7350000Y-94150000D03*
X7350000Y-101150000D03*
X15150000Y-101150000D03*
X15150000Y-94150000D03*
X15150000Y-87150000D03*
%TD*%
D15*
%TO.C,SW3*%
X22300000Y-28465000D03*
D16*
X22300000Y-23385000D03*
D15*
X22300000Y-18305000D03*
D17*
X17220000Y-20845000D03*
X19760000Y-27195000D03*
%TD*%
D22*
%TO.C,J4*%
X80525000Y-52455000D03*
D23*
X82525000Y-52455000D03*
D24*
X78025000Y-54325000D03*
X85025000Y-54325000D03*
X85025000Y-46825000D03*
X78025000Y-46825000D03*
%TD*%
D21*
%TO.C,D4*%
X70855000Y-55005000D03*
X73395000Y-55005000D03*
X70855000Y-57545000D03*
X73395000Y-57545000D03*
%TD*%
D25*
%TO.C,U1*%
X96175000Y-47945000D03*
X96175000Y-45405000D03*
X96175000Y-42865000D03*
X96175000Y-40325000D03*
X96175000Y-37785000D03*
X96175000Y-35245000D03*
X96175000Y-32705000D03*
X96175000Y-30165000D03*
X96175000Y-27625000D03*
X96175000Y-25085000D03*
X96175000Y-22545000D03*
X96175000Y-20005000D03*
X96175000Y-17465000D03*
X96175000Y-14925000D03*
X70775000Y-14925000D03*
X70775000Y-17465000D03*
X70775000Y-20005000D03*
X70775000Y-22545000D03*
X70775000Y-25085000D03*
X70775000Y-27625000D03*
X70775000Y-30165000D03*
X70775000Y-32705000D03*
X70775000Y-35245000D03*
X70775000Y-37785000D03*
X70775000Y-40325000D03*
X70775000Y-42865000D03*
X70775000Y-45405000D03*
X70775000Y-47945000D03*
X68235000Y-47985000D03*
X68235000Y-45405000D03*
X68235000Y-42865000D03*
X68235000Y-40325000D03*
X68235000Y-37785000D03*
X68235000Y-35245000D03*
X68235000Y-32705000D03*
X68235000Y-30165000D03*
%TD*%
D18*
%TO.C,SW3*%
X66845000Y-15835000D03*
X66845000Y-14135000D03*
%TD*%
D15*
%TO.C,SW1*%
X22300000Y-68465000D03*
D16*
X22300000Y-63385000D03*
D15*
X22300000Y-58305000D03*
D17*
X17220000Y-60845000D03*
X19760000Y-67195000D03*
%TD*%
D15*
%TO.C,SW2*%
X22300000Y-48465000D03*
D16*
X22300000Y-43385000D03*
D15*
X22300000Y-38305000D03*
D17*
X17220000Y-40845000D03*
X19760000Y-47195000D03*
%TD*%
D13*
%TO.C,J2*%
X76650000Y-87150000D03*
D14*
X81650000Y-87150000D03*
%TD*%
D26*
%TO.C,J3*%
X83245000Y-58385000D03*
X76645000Y-58385000D03*
D10*
X82345000Y-44385000D03*
D11*
X84145000Y-44385000D03*
X87145000Y-44385000D03*
X87145000Y-51385000D03*
X87145000Y-58385000D03*
X79345000Y-58385000D03*
X79345000Y-51385000D03*
X79345000Y-44385000D03*
%TD*%
D27*
%TO.C,FB1*%
X78485000Y-28180000D03*
X78485000Y-29830000D03*
%TD*%
D28*
%TO.C,R8*%
X82545000Y-40882500D03*
X82545000Y-42707500D03*
%TD*%
D29*
%TO.C,JP1*%
X92842500Y-33435000D03*
D30*
X92842500Y-34735000D03*
D31*
X92842500Y-36035000D03*
%TD*%
D32*
%TO.C,U1*%
X44125000Y-40965000D03*
X44125000Y-38425000D03*
X44125000Y-35885000D03*
X44125000Y-33345000D03*
X44125000Y-30805000D03*
X44125000Y-28265000D03*
X44125000Y-25725000D03*
X60315000Y-25725000D03*
X60315000Y-28265000D03*
X60315000Y-30805000D03*
X60315000Y-33345000D03*
X60315000Y-35885000D03*
X60315000Y-38425000D03*
X60315000Y-40965000D03*
%TD*%
D33*
%TO.C,C15*%
X80300000Y-31145000D03*
X81850000Y-31145000D03*
%TD*%
D34*
%TO.C,C18*%
X86315000Y-26390000D03*
X86315000Y-27940000D03*
%TD*%
D28*
%TO.C,R7*%
X80545000Y-40902500D03*
X80545000Y-42727500D03*
%TD*%
D27*
%TO.C,FB2*%
X88565000Y-24550000D03*
X88565000Y-26200000D03*
%TD*%
D34*
%TO.C,C20*%
X82795000Y-25390000D03*
X82795000Y-26940000D03*
%TD*%
D35*
%TO.C,RN1*%
X91035000Y-40315000D03*
X91835000Y-40315000D03*
X92635000Y-40315000D03*
X93435000Y-40315000D03*
X93435000Y-42315000D03*
X92635000Y-42315000D03*
X91835000Y-42315000D03*
X91035000Y-42315000D03*
%TD*%
D36*
%TO.C,J1*%
X82775000Y-60575000D03*
X82775000Y-55495000D03*
X80235000Y-60575000D03*
X80235000Y-55495000D03*
%TD*%
D33*
%TO.C,C14*%
X80300000Y-29825000D03*
X81850000Y-29825000D03*
%TD*%
D34*
%TO.C,C16*%
X78495000Y-31230000D03*
X78495000Y-32780000D03*
%TD*%
D33*
%TO.C,C8*%
X80320000Y-28485000D03*
X81870000Y-28485000D03*
%TD*%
D37*
%TO.C,C17*%
X87420000Y-30615000D03*
X85870000Y-30615000D03*
%TD*%
D38*
%TO.C,C6*%
X84995000Y-42685000D03*
X84995000Y-40785000D03*
%TD*%
D37*
%TO.C,C21*%
X88370000Y-23115000D03*
X86820000Y-23115000D03*
%TD*%
D39*
%TO.C,R9*%
X86975000Y-42667500D03*
X86975000Y-40842500D03*
%TD*%
D40*
%TO.C,C7*%
X89790000Y-51635000D03*
X86840000Y-51635000D03*
%TD*%
D29*
%TO.C,JP2*%
X90282500Y-33545000D03*
D30*
X90282500Y-34845000D03*
D31*
X90282500Y-36145000D03*
%TD*%
M02*
