M48
; DRILL file KiCad 10.0.4 date 2026-07-14T11:37:03
; FORMAT={-:-/ absolute / metric / decimal}
; #@! TF.CreationDate,2026-07-14T11:37:03+09:00
; #@! TF.GenerationSoftware,Kicad,Pcbnew,10.0.4
; #@! TF.FileFunction,MixedPlating,1,2
FMAT,2
METRIC
; #@! TA.AperFunction,Plated,PTH,ViaDrill
T1C0.300
; #@! TA.AperFunction,Plated,PTH,ViaDrill
T2C0.381
; #@! TA.AperFunction,Plated,PTH,ComponentDrill
T3C0.500
; #@! TA.AperFunction,Plated,PTH,ComponentDrill
T4C0.600
; #@! TA.AperFunction,Plated,PTH,ComponentDrill
T5C0.762
; #@! TA.AperFunction,Plated,PTH,ComponentDrill
T6C0.900
; #@! TA.AperFunction,Plated,PTH,ViaDrill
T7C1.000
; #@! TA.AperFunction,Plated,PTH,ComponentDrill
T8C1.000
; #@! TA.AperFunction,Plated,PTH,ComponentDrill
T9C1.400
; #@! TA.AperFunction,Plated,PTH,ComponentDrill
T10C1.500
; #@! TA.AperFunction,Plated,PTH,ComponentDrill
T11C1.640
; #@! TA.AperFunction,NonPlated,NPTH,ComponentDrill
T12C1.700
; #@! TA.AperFunction,NonPlated,NPTH,ComponentDrill
T13C2.250
; #@! TA.AperFunction,NonPlated,NPTH,ComponentDrill
T14C2.500
; #@! TA.AperFunction,NonPlated,NPTH,ComponentDrill
T15C4.000
%
G90
G05
T1
X29.92Y-47.245
X30.82Y-48.145
X36.62Y-29.345
X39.52Y-41.545
X41.82Y-34.345
X44.12Y-45.245
X44.12Y-46.545
X67.525Y-7.745
X67.755Y-58.935
X68.147Y-60.055
X69.265Y-18.995
X69.645Y-21.435
X72.065Y-28.647
X72.412Y-33.825
X72.425Y-29.515
X72.475Y-17.515
X72.535Y-35.583
X72.865Y-27.305
X73.374Y-34.447
X73.685Y-47.065
X73.715Y-47.935
X73.866Y-15.542
X74.345Y-36.375
X74.448Y-46.651
X74.649Y-22.095
X75.205Y-46.715
X75.535Y-44.845
X75.795Y-17.705
X75.865Y-19.165
X75.945Y-26.505
X76.445Y-33.935
X76.895Y-28.78
X77.1Y-17.245
X77.575Y-21.335
X77.925Y-50.975
X78.065Y-13.735
X78.145Y-24.705
X79.435Y-30.255
X79.445Y-31.305
X79.575Y-14.422
X79.685Y-32.085
X79.765Y-26.405
X79.955Y-21.185
X80.525Y-42.775
X80.769Y-26.137
X82.425Y-27.785
X82.425Y-30.335
X82.525Y-42.725
X83.095Y-21.37
X83.205Y-22.49
X83.465Y-16.717
X83.489Y-20.689
X83.545Y-23.485
X84.1Y-19.57
X84.305Y-23.095
X84.825Y-30.335
X84.905Y-27.885
X85.075Y-21.225
X85.815Y-13.075
X86.225Y-13.909
X86.425Y-25.155
X86.657Y-32.605
X86.725Y-20.875
X87.336Y-14.381
X88.755Y-34.565
X89.101Y-17.681
X89.795Y-25.561
X90.165Y-27.295
X90.205Y-28.305
X90.245Y-29.301
X90.245Y-30.175
X90.494Y-30.894
X92.385Y-24.685
X93.442Y-28.552
X93.615Y-27.385
X93.675Y-32.662
T2
X66.715Y-26.405
X66.745Y-28.145
X67.065Y-10.965
X67.615Y-17.875
X67.905Y-20.035
X67.965Y-28.735
X68.345Y-11.775
X69.535Y-33.915
X69.535Y-36.515
X69.535Y-41.445
X69.575Y-39.035
X69.773Y-25.918
X69.845Y-50.705
X69.895Y-53.955
X72.185Y-13.585
X72.565Y-20.025
X72.715Y-52.855
X72.715Y-40.725
X73.735Y-42.775
X74.185Y-44.795
X74.565Y-13.245
X74.695Y-56.355
X74.834Y-25.536
X75.415Y-27.824
X75.415Y-41.605
X75.525Y-14.901
X77.565Y-24.035
X77.577Y-25.325
X79.325Y-18.365
X79.555Y-38.155
X80.715Y-14.085
X81.635Y-17.435
X81.9Y-24.94
X82.881Y-33.296
X84.165Y-12.115
X84.895Y-33.505
X85.955Y-37.215
X85.975Y-35.315
X86.725Y-21.665
X87.035Y-38.305
X87.345Y-46.915
X87.364Y-26.375
X87.475Y-33.216
X87.545Y-12.095
X87.565Y-35.785
X87.845Y-29.635
X88.293Y-32.79
X88.575Y-24.005
X89.965Y-43.915
X90.485Y-46.835
X90.685Y-36.875
X90.855Y-56.755
X90.925Y-58.735
X90.935Y-16.695
X91.065Y-54.315
X91.534Y-33.455
X91.575Y-39.355
X91.835Y-43.205
X92.215Y-55.655
X92.535Y-14.415
X92.885Y-37.165
X94.315Y-44.155
X94.355Y-49.345
X94.565Y-25.945
X94.685Y-21.305
X94.705Y-23.455
X95.055Y-12.035
X95.065Y-38.985
X95.085Y-29.145
X95.105Y-33.925
T3
X66.845Y-14.135
X66.845Y-15.835
X67.035Y-22.175
X67.035Y-23.875
T4
X80.525Y-52.455
X82.525Y-52.455
T5
X66.455Y-55.025
X66.455Y-57.565
X68.995Y-55.025
X68.995Y-57.565
X70.855Y-55.005
X70.855Y-57.545
X73.395Y-55.005
X73.395Y-57.545
T6
X68.235Y-30.165
X68.235Y-32.705
X68.235Y-35.245
X68.235Y-37.785
X68.235Y-40.325
X68.235Y-42.865
X68.235Y-45.405
X68.235Y-47.985
X70.775Y-14.925
X70.775Y-17.465
X70.775Y-20.005
X70.775Y-22.545
X70.775Y-25.085
X70.775Y-27.625
X70.775Y-30.165
X70.775Y-32.705
X70.775Y-35.245
X70.775Y-37.785
X70.775Y-40.325
X70.775Y-42.865
X70.775Y-45.405
X70.775Y-47.945
X96.175Y-14.925
X96.175Y-17.465
X96.175Y-20.005
X96.175Y-22.545
X96.175Y-25.085
X96.175Y-27.625
X96.175Y-30.165
X96.175Y-32.705
X96.175Y-35.245
X96.175Y-37.785
X96.175Y-40.325
X96.175Y-42.865
X96.175Y-45.405
X96.175Y-47.945
T7
X83.565Y-29.075
T8
X7.35Y-87.15
X7.35Y-94.15
X7.35Y-101.15
X10.35Y-87.15
X12.15Y-87.15
X15.15Y-87.15
X15.15Y-94.15
X15.15Y-101.15
X44.6Y-25.725
X44.6Y-28.265
X44.6Y-30.805
X44.6Y-33.345
X44.6Y-35.885
X44.6Y-38.425
X44.6Y-40.965
X50.35Y-87.15
X50.35Y-94.15
X50.35Y-101.15
X53.35Y-87.15
X55.15Y-87.15
X58.15Y-87.15
X58.15Y-94.15
X58.15Y-101.15
X59.84Y-25.725
X59.84Y-28.265
X59.84Y-30.805
X59.84Y-33.345
X59.84Y-35.885
X59.84Y-38.425
X59.84Y-40.965
X70.775Y-7.305
X70.775Y-9.845
X73.315Y-7.305
X73.315Y-9.845
X75.855Y-7.305
X75.855Y-9.845
X78.395Y-7.305
X78.395Y-9.845
X79.345Y-44.385
X79.345Y-51.385
X79.345Y-58.385
X80.235Y-55.495
X80.235Y-60.575
X80.935Y-7.305
X80.935Y-9.845
X82.345Y-44.385
X82.775Y-55.495
X82.775Y-60.575
X83.475Y-7.305
X83.475Y-9.845
X84.145Y-44.385
X86.015Y-7.305
X86.015Y-9.845
X87.145Y-44.385
X87.145Y-51.385
X87.145Y-58.385
X88.555Y-7.305
X88.555Y-9.845
X91.095Y-7.305
X91.095Y-9.845
X93.635Y-7.305
X93.635Y-9.845
X93.985Y-54.96
X93.985Y-57.5
X96.175Y-7.305
X96.175Y-9.845
X96.525Y-54.96
X96.525Y-57.5
T9
X33.65Y-87.15
X38.65Y-87.15
X76.65Y-87.15
X81.65Y-87.15
T10
X17.22Y-20.845
X17.22Y-40.845
X17.22Y-60.845
X19.76Y-27.195
X19.76Y-47.195
X19.76Y-67.195
X36.22Y-20.845
X36.22Y-40.845
X36.22Y-60.845
X38.76Y-27.195
X38.76Y-47.195
X38.76Y-67.195
T11
X78.025Y-46.825
X78.025Y-54.325
X85.025Y-46.825
X85.025Y-54.325
T12
X22.3Y-18.305
X22.3Y-28.465
X22.3Y-38.305
X22.3Y-48.465
X22.3Y-58.305
X22.3Y-68.465
X41.3Y-18.305
X41.3Y-28.465
X41.3Y-38.305
X41.3Y-48.465
X41.3Y-58.305
X41.3Y-68.465
T13
X76.645Y-58.385
X83.245Y-58.385
T14
X8.15Y-78.65
X39.15Y-94.65
X51.15Y-78.65
X82.15Y-94.65
T15
X22.3Y-23.385
X22.3Y-43.385
X22.3Y-63.385
X41.3Y-23.385
X41.3Y-43.385
X41.3Y-63.385
M30
