%TF.GenerationSoftware,KiCad,Pcbnew,10.0.4*%
%TF.CreationDate,2026-07-14T13:36:26+09:00*%
%TF.ProjectId,N12_Mixed_100x100_Panel,4e31325f-4d69-4786-9564-5f3130307831,rev?*%
%TF.SameCoordinates,Original*%
%TF.FileFunction,Soldermask,Bot*%
%TF.FilePolarity,Negative*%
%FSLAX46Y46*%
G04 Gerber Fmt 4.6, Leading zero omitted, Abs format (unit mm)*
G04 Created by KiCad (PCBNEW 10.0.4) date 2026-07-14 13:36:26*
%MOMM*%
%LPD*%
G01*
G04 APERTURE LIST*
G04 Aperture macros list*
%AMRoundRect*
0 Rectangle with rounded corners*
0 $1 Rounding radius*
0 $2 $3 $4 $5 $6 $7 $8 $9 X,Y pos of 4 corners*
0 Add a 4 corners polygon primitive as box body*
4,1,4,$2,$3,$4,$5,$6,$7,$8,$9,$2,$3,0*
0 Add four circle primitives for the rounded corners*
1,1,$1+$1,$2,$3*
1,1,$1+$1,$4,$5*
1,1,$1+$1,$6,$7*
1,1,$1+$1,$8,$9*
0 Add four rect primitives between the rounded corners*
20,1,$1+$1,$2,$3,$4,$5,0*
20,1,$1+$1,$4,$5,$6,$7,0*
20,1,$1+$1,$6,$7,$8,$9,0*
20,1,$1+$1,$8,$9,$2,$3,0*%
%AMFreePoly0*
4,1,23,0.550000,-0.750000,0.000000,-0.750000,0.000000,-0.745722,-0.065263,-0.745722,-0.191342,-0.711940,-0.304381,-0.646677,-0.396677,-0.554381,-0.461940,-0.441342,-0.495722,-0.315263,-0.495722,-0.250000,-0.500000,-0.250000,-0.500000,0.250000,-0.495722,0.250000,-0.495722,0.315263,-0.461940,0.441342,-0.396677,0.554381,-0.304381,0.646677,-0.191342,0.711940,-0.065263,0.745722,0.000000,0.745722,
0.000000,0.750000,0.550000,0.750000,0.550000,-0.750000,0.550000,-0.750000,$1*%
%AMFreePoly1*
4,1,23,0.000000,0.745722,0.065263,0.745722,0.191342,0.711940,0.304381,0.646677,0.396677,0.554381,0.461940,0.441342,0.495722,0.315263,0.495722,0.250000,0.500000,0.250000,0.500000,-0.250000,0.495722,-0.250000,0.495722,-0.315263,0.461940,-0.441342,0.396677,-0.554381,0.304381,-0.646677,0.191342,-0.711940,0.065263,-0.745722,0.000000,-0.745722,0.000000,-0.750000,-0.550000,-0.750000,
-0.550000,0.750000,0.000000,0.750000,0.000000,0.745722,0.000000,0.745722,$1*%
G04 Aperture macros list end*
%ADD10C,1.200000*%
%ADD11R,1.500000X1.500000*%
%ADD12C,1.500000*%
%ADD13C,3.200000*%
%ADD14R,1.100000X1.100000*%
%ADD15C,1.100000*%
%ADD16C,2.460000*%
%ADD17C,0.900000*%
%ADD18R,3.000000X3.000000*%
%ADD19C,3.000000*%
%ADD20C,2.000000*%
%ADD21R,2.000000X2.000000*%
%ADD22C,1.524000*%
%ADD23R,1.700000X1.700000*%
%ADD24O,1.700000X1.700000*%
%ADD25RoundRect,0.250000X-0.450000X0.262500X-0.450000X-0.262500X0.450000X-0.262500X0.450000X0.262500X0*%
%ADD26RoundRect,0.250000X0.450000X-0.262500X0.450000X0.262500X-0.450000X0.262500X-0.450000X-0.262500X0*%
%ADD27RoundRect,0.225000X-0.250000X0.225000X-0.250000X-0.225000X0.250000X-0.225000X0.250000X0.225000X0*%
%ADD28R,0.500000X0.800000*%
%ADD29R,1.800000X1.800000*%
%ADD30C,1.800000*%
%ADD31RoundRect,0.200000X-0.275000X0.200000X-0.275000X-0.200000X0.275000X-0.200000X0.275000X0.200000X0*%
%ADD32RoundRect,0.225000X-0.225000X-0.250000X0.225000X-0.250000X0.225000X0.250000X-0.225000X0.250000X0*%
%ADD33FreePoly0,270.000000*%
%ADD34R,1.500000X1.000000*%
%ADD35FreePoly1,270.000000*%
%ADD36RoundRect,0.225000X0.225000X0.250000X-0.225000X0.250000X-0.225000X-0.250000X0.225000X-0.250000X0*%
%ADD37RoundRect,0.250000X0.325000X0.650000X-0.325000X0.650000X-0.325000X-0.650000X0.325000X-0.650000X0*%
%ADD38C,2.250000*%
%ADD39RoundRect,0.250000X0.475000X-0.250000X0.475000X0.250000X-0.475000X0.250000X-0.475000X-0.250000X0*%
%ADD40C,1.600000*%
%ADD41C,0.350000*%
G04 APERTURE END LIST*
D10*
%TO.C,D3*%
X66455000Y-55025000D03*
X68995000Y-55025000D03*
X66455000Y-57565000D03*
X68995000Y-57565000D03*
%TD*%
D11*
%TO.C,J1*%
X55150000Y-87150000D03*
D12*
X53350000Y-87150000D03*
X50350000Y-87150000D03*
X50350000Y-94150000D03*
X50350000Y-101150000D03*
X58150000Y-101150000D03*
X58150000Y-94150000D03*
X58150000Y-87150000D03*
%TD*%
D13*
%TO.C,H1*%
X8150000Y-78650000D03*
%TD*%
D14*
%TO.C,J4*%
X80525000Y-52455000D03*
D15*
X82525000Y-52455000D03*
D16*
X78025000Y-54325000D03*
X85025000Y-54325000D03*
X85025000Y-46825000D03*
X78025000Y-46825000D03*
%TD*%
D17*
%TO.C,SW3*%
X66845000Y-15835000D03*
X66845000Y-14135000D03*
%TD*%
D10*
%TO.C,D4*%
X70855000Y-55005000D03*
X73395000Y-55005000D03*
X70855000Y-57545000D03*
X73395000Y-57545000D03*
%TD*%
D17*
%TO.C,SW1*%
X67035000Y-23875000D03*
X67035000Y-22175000D03*
%TD*%
D13*
%TO.C,H2*%
X39150000Y-94650000D03*
%TD*%
D18*
%TO.C,J2*%
X33650000Y-87150000D03*
D19*
X38650000Y-87150000D03*
%TD*%
D20*
%TO.C,SW2*%
X26430000Y-25130000D03*
X31510000Y-25130000D03*
X36590000Y-25130000D03*
D21*
X27700000Y-22590000D03*
D20*
X34050000Y-20050000D03*
%TD*%
D18*
%TO.C,J2*%
X76650000Y-87150000D03*
D19*
X81650000Y-87150000D03*
%TD*%
D13*
%TO.C,H1*%
X51150000Y-78650000D03*
%TD*%
D20*
%TO.C,SW3*%
X45430000Y-25130000D03*
X50510000Y-25130000D03*
X55590000Y-25130000D03*
D21*
X46700000Y-22590000D03*
D20*
X53050000Y-20050000D03*
%TD*%
D11*
%TO.C,SW2*%
X93985000Y-57500000D03*
D12*
X93985000Y-54960000D03*
X96525000Y-57500000D03*
X96525000Y-54960000D03*
%TD*%
D22*
%TO.C,U1*%
X96175000Y-47945000D03*
X96175000Y-45405000D03*
X96175000Y-42865000D03*
X96175000Y-40325000D03*
X96175000Y-37785000D03*
X96175000Y-35245000D03*
X96175000Y-32705000D03*
X96175000Y-30165000D03*
X96175000Y-27625000D03*
X96175000Y-25085000D03*
X96175000Y-22545000D03*
X96175000Y-20005000D03*
X96175000Y-17465000D03*
X96175000Y-14925000D03*
X70775000Y-14925000D03*
X70775000Y-17465000D03*
X70775000Y-20005000D03*
X70775000Y-22545000D03*
X70775000Y-25085000D03*
X70775000Y-27625000D03*
X70775000Y-30165000D03*
X70775000Y-32705000D03*
X70775000Y-35245000D03*
X70775000Y-37785000D03*
X70775000Y-40325000D03*
X70775000Y-42865000D03*
X70775000Y-45405000D03*
X70775000Y-47945000D03*
X68235000Y-47985000D03*
X68235000Y-45405000D03*
X68235000Y-42865000D03*
X68235000Y-40325000D03*
X68235000Y-37785000D03*
X68235000Y-35245000D03*
X68235000Y-32705000D03*
X68235000Y-30165000D03*
%TD*%
D20*
%TO.C,SW1*%
X7430000Y-25130000D03*
X12510000Y-25130000D03*
X17590000Y-25130000D03*
D21*
X8700000Y-22590000D03*
D20*
X15050000Y-20050000D03*
%TD*%
D13*
%TO.C,H2*%
X82150000Y-94650000D03*
%TD*%
D11*
%TO.C,J1*%
X12150000Y-87150000D03*
D12*
X10350000Y-87150000D03*
X7350000Y-87150000D03*
X7350000Y-94150000D03*
X7350000Y-101150000D03*
X15150000Y-101150000D03*
X15150000Y-94150000D03*
X15150000Y-87150000D03*
%TD*%
D23*
%TO.C,J2*%
X70775000Y-9845000D03*
D24*
X70775000Y-7305000D03*
X73315000Y-9845000D03*
X73315000Y-7305000D03*
X75855000Y-9845000D03*
X75855000Y-7305000D03*
X78395000Y-9845000D03*
X78395000Y-7305000D03*
X80935000Y-9845000D03*
X80935000Y-7305000D03*
X83475000Y-9845000D03*
X83475000Y-7305000D03*
X86015000Y-9845000D03*
X86015000Y-7305000D03*
X88555000Y-9845000D03*
X88555000Y-7305000D03*
X91095000Y-9845000D03*
X91095000Y-7305000D03*
X93635000Y-9845000D03*
X93635000Y-7305000D03*
X96175000Y-9845000D03*
X96175000Y-7305000D03*
%TD*%
D25*
%TO.C,R7*%
X80545000Y-40902500D03*
X80545000Y-42727500D03*
%TD*%
D26*
%TO.C,R9*%
X86975000Y-42667500D03*
X86975000Y-40842500D03*
%TD*%
D27*
%TO.C,C20*%
X82795000Y-25390000D03*
X82795000Y-26940000D03*
%TD*%
D28*
%TO.C,RN1*%
X91035000Y-40315000D03*
X91835000Y-40315000D03*
X92635000Y-40315000D03*
X93435000Y-40315000D03*
X93435000Y-42315000D03*
X92635000Y-42315000D03*
X91835000Y-42315000D03*
X91035000Y-42315000D03*
%TD*%
D29*
%TO.C,U1*%
X30050000Y-43050000D03*
D30*
X32590000Y-43050000D03*
X30050000Y-45590000D03*
X32590000Y-45590000D03*
X30050000Y-48130000D03*
X32590000Y-48130000D03*
X30050000Y-50670000D03*
X32590000Y-50670000D03*
X30050000Y-53210000D03*
X32590000Y-53210000D03*
X30050000Y-55750000D03*
X32590000Y-55750000D03*
X30050000Y-58290000D03*
X32590000Y-58290000D03*
X30050000Y-60830000D03*
X32590000Y-60830000D03*
X30050000Y-63370000D03*
X32590000Y-63370000D03*
X30050000Y-65910000D03*
X32590000Y-65910000D03*
X30050000Y-68450000D03*
X32590000Y-68450000D03*
X30050000Y-70990000D03*
X32590000Y-70990000D03*
%TD*%
D31*
%TO.C,FB2*%
X88565000Y-24550000D03*
X88565000Y-26200000D03*
%TD*%
D27*
%TO.C,C16*%
X78495000Y-31230000D03*
X78495000Y-32780000D03*
%TD*%
D25*
%TO.C,R8*%
X82545000Y-40882500D03*
X82545000Y-42707500D03*
%TD*%
D32*
%TO.C,C14*%
X80300000Y-29825000D03*
X81850000Y-29825000D03*
%TD*%
D33*
%TO.C,JP1*%
X92842500Y-33435000D03*
D34*
X92842500Y-34735000D03*
D35*
X92842500Y-36035000D03*
%TD*%
D27*
%TO.C,C18*%
X86315000Y-26390000D03*
X86315000Y-27940000D03*
%TD*%
D32*
%TO.C,C15*%
X80300000Y-31145000D03*
X81850000Y-31145000D03*
%TD*%
D36*
%TO.C,C17*%
X87420000Y-30615000D03*
X85870000Y-30615000D03*
%TD*%
D31*
%TO.C,FB1*%
X78485000Y-28180000D03*
X78485000Y-29830000D03*
%TD*%
D33*
%TO.C,JP2*%
X90282500Y-33545000D03*
D34*
X90282500Y-34845000D03*
D35*
X90282500Y-36145000D03*
%TD*%
D36*
%TO.C,C21*%
X88370000Y-23115000D03*
X86820000Y-23115000D03*
%TD*%
D37*
%TO.C,C7*%
X89790000Y-51635000D03*
X86840000Y-51635000D03*
%TD*%
D32*
%TO.C,C8*%
X80320000Y-28485000D03*
X81870000Y-28485000D03*
%TD*%
D38*
%TO.C,J3*%
X83245000Y-58385000D03*
X76645000Y-58385000D03*
D11*
X82345000Y-44385000D03*
D12*
X84145000Y-44385000D03*
X87145000Y-44385000D03*
X87145000Y-51385000D03*
X87145000Y-58385000D03*
X79345000Y-58385000D03*
X79345000Y-51385000D03*
X79345000Y-44385000D03*
%TD*%
D39*
%TO.C,C6*%
X84995000Y-42685000D03*
X84995000Y-40785000D03*
%TD*%
D40*
%TO.C,J1*%
X82775000Y-60575000D03*
X82775000Y-55495000D03*
X80235000Y-60575000D03*
X80235000Y-55495000D03*
%TD*%
D41*
X66455000Y-55025000D03*
X68995000Y-55025000D03*
X66455000Y-57565000D03*
X68995000Y-57565000D03*
X55150000Y-87150000D03*
X53350000Y-87150000D03*
X50350000Y-87150000D03*
X50350000Y-94150000D03*
X50350000Y-101150000D03*
X58150000Y-101150000D03*
X58150000Y-94150000D03*
X58150000Y-87150000D03*
X8150000Y-78650000D03*
X80525000Y-52455000D03*
X82525000Y-52455000D03*
X78025000Y-54325000D03*
X85025000Y-54325000D03*
X85025000Y-46825000D03*
X78025000Y-46825000D03*
X66845000Y-15835000D03*
X66845000Y-14135000D03*
X70855000Y-55005000D03*
X73395000Y-55005000D03*
X70855000Y-57545000D03*
X73395000Y-57545000D03*
X67035000Y-23875000D03*
X67035000Y-22175000D03*
X39150000Y-94650000D03*
X33650000Y-87150000D03*
X38650000Y-87150000D03*
X26430000Y-25130000D03*
X31510000Y-25130000D03*
X36590000Y-25130000D03*
X27700000Y-22590000D03*
X34050000Y-20050000D03*
X76650000Y-87150000D03*
X81650000Y-87150000D03*
X51150000Y-78650000D03*
X45430000Y-25130000D03*
X50510000Y-25130000D03*
X55590000Y-25130000D03*
X46700000Y-22590000D03*
X53050000Y-20050000D03*
X93985000Y-57500000D03*
X93985000Y-54960000D03*
X96525000Y-57500000D03*
X96525000Y-54960000D03*
X96175000Y-47945000D03*
X96175000Y-45405000D03*
X96175000Y-42865000D03*
X96175000Y-40325000D03*
X96175000Y-37785000D03*
X96175000Y-35245000D03*
X96175000Y-32705000D03*
X96175000Y-30165000D03*
X96175000Y-27625000D03*
X96175000Y-25085000D03*
X96175000Y-22545000D03*
X96175000Y-20005000D03*
X96175000Y-17465000D03*
X96175000Y-14925000D03*
X70775000Y-14925000D03*
X70775000Y-17465000D03*
X70775000Y-20005000D03*
X70775000Y-22545000D03*
X70775000Y-25085000D03*
X70775000Y-27625000D03*
X70775000Y-30165000D03*
X70775000Y-32705000D03*
X70775000Y-35245000D03*
X70775000Y-37785000D03*
X70775000Y-40325000D03*
X70775000Y-42865000D03*
X70775000Y-45405000D03*
X70775000Y-47945000D03*
X68235000Y-47985000D03*
X68235000Y-45405000D03*
X68235000Y-42865000D03*
X68235000Y-40325000D03*
X68235000Y-37785000D03*
X68235000Y-35245000D03*
X68235000Y-32705000D03*
X68235000Y-30165000D03*
X7430000Y-25130000D03*
X12510000Y-25130000D03*
X17590000Y-25130000D03*
X8700000Y-22590000D03*
X15050000Y-20050000D03*
X82150000Y-94650000D03*
X12150000Y-87150000D03*
X10350000Y-87150000D03*
X7350000Y-87150000D03*
X7350000Y-94150000D03*
X7350000Y-101150000D03*
X15150000Y-101150000D03*
X15150000Y-94150000D03*
X15150000Y-87150000D03*
X70775000Y-9845000D03*
X70775000Y-7305000D03*
X73315000Y-9845000D03*
X73315000Y-7305000D03*
X75855000Y-9845000D03*
X75855000Y-7305000D03*
X78395000Y-9845000D03*
X78395000Y-7305000D03*
X80935000Y-9845000D03*
X80935000Y-7305000D03*
X83475000Y-9845000D03*
X83475000Y-7305000D03*
X86015000Y-9845000D03*
X86015000Y-7305000D03*
X88555000Y-9845000D03*
X88555000Y-7305000D03*
X91095000Y-9845000D03*
X91095000Y-7305000D03*
X93635000Y-9845000D03*
X93635000Y-7305000D03*
X96175000Y-9845000D03*
X96175000Y-7305000D03*
X30050000Y-43050000D03*
X32590000Y-43050000D03*
X30050000Y-45590000D03*
X32590000Y-45590000D03*
X30050000Y-48130000D03*
X32590000Y-48130000D03*
X30050000Y-50670000D03*
X32590000Y-50670000D03*
X30050000Y-53210000D03*
X32590000Y-53210000D03*
X30050000Y-55750000D03*
X32590000Y-55750000D03*
X30050000Y-58290000D03*
X32590000Y-58290000D03*
X30050000Y-60830000D03*
X32590000Y-60830000D03*
X30050000Y-63370000D03*
X32590000Y-63370000D03*
X30050000Y-65910000D03*
X32590000Y-65910000D03*
X30050000Y-68450000D03*
X32590000Y-68450000D03*
X30050000Y-70990000D03*
X32590000Y-70990000D03*
X83245000Y-58385000D03*
X76645000Y-58385000D03*
X82345000Y-44385000D03*
X84145000Y-44385000D03*
X87145000Y-44385000D03*
X87145000Y-51385000D03*
X87145000Y-58385000D03*
X79345000Y-58385000D03*
X79345000Y-51385000D03*
X79345000Y-44385000D03*
X82775000Y-60575000D03*
X82775000Y-55495000D03*
X80235000Y-60575000D03*
X80235000Y-55495000D03*
M02*
